<svg width="189" height="49" viewBox="0 0 189 49" fill="none" xmlns="http://www.w3.org/2000/svg">
<path d="M150.435 12.5731C152.394 13.7104 153.973 15.29 155.111 17.2486C156.248 19.2704 156.817 21.4817 156.817 23.8826V34.3707C156.817 35.0657 156.564 35.6344 156.122 36.0766C155.679 36.5189 155.111 36.7716 154.416 36.7716C153.721 36.7716 153.152 36.5189 152.71 36.0766C152.267 35.6344 152.015 35.0657 152.015 34.3707V32.6017C150.941 33.9285 149.614 35.0026 148.034 35.7607C146.455 36.5189 144.749 36.898 142.98 36.898C140.705 36.898 138.683 36.3294 136.851 35.1921C135.019 34.0548 133.566 32.4753 132.492 30.5167C131.418 28.4949 130.912 26.2835 130.912 23.8826C130.912 21.4186 131.481 19.2072 132.618 17.2486C133.755 15.2268 135.335 13.7104 137.293 12.5731C139.315 11.4359 141.463 10.8672 143.928 10.8672C146.265 10.8672 148.477 11.4359 150.435 12.5731ZM148.097 31.5908C149.361 30.8326 150.372 29.7585 151.067 28.4317C151.762 27.1049 152.141 25.5885 152.141 23.9458C152.141 22.3031 151.762 20.7867 151.067 19.3967C150.372 18.0699 149.361 16.9958 148.097 16.2377C146.834 15.4795 145.381 15.1004 143.864 15.1004C142.285 15.1004 140.895 15.4795 139.631 16.2377C138.368 16.9958 137.357 18.0699 136.598 19.3967C135.84 20.7236 135.461 22.2399 135.461 23.9458C135.461 25.5885 135.84 27.1049 136.598 28.4317C137.357 29.7585 138.368 30.8326 139.631 31.5908C140.895 32.3489 142.348 32.728 143.864 32.728C145.444 32.728 146.834 32.3489 148.097 31.5908Z" fill="#102448"/>
<path d="M96.0988 13.1418C96.0988 13.4577 96.0356 13.8368 95.8461 14.279L81.4407 46.628C81.0616 47.5757 80.4298 48.0811 79.6084 48.0811C79.2925 48.0811 78.9134 48.0179 78.4711 47.8284C77.5234 47.4493 77.0812 46.8175 77.0812 45.9961C77.0812 45.6171 77.1443 45.238 77.3339 44.8589L82.0093 34.2444L71.3948 14.1527C71.2685 13.8999 71.1421 13.5209 71.1421 13.1418C71.1421 12.7627 71.2685 12.3836 71.5212 12.0045C71.7739 11.6886 72.0898 11.3727 72.5321 11.1831C72.7848 11.0568 73.1007 10.9936 73.4798 10.9936C74.3643 10.9936 74.9962 11.4359 75.4384 12.3204L84.0311 29.4426L91.6129 12.3836C91.992 11.4991 92.6238 10.9936 93.4452 10.9936C93.8242 10.9936 94.2033 11.0568 94.5824 11.2463C95.6565 11.6886 96.0988 12.2572 96.0988 13.1418Z" fill="#102448"/>
<path d="M120.361 12.5731C122.193 13.7104 123.646 15.2899 124.72 17.2486C125.794 19.2704 126.3 21.4817 126.3 23.8826C126.3 26.3467 125.731 28.558 124.594 30.5167C123.456 32.5385 121.877 34.0548 119.918 35.1921C117.896 36.3293 115.748 36.898 113.284 36.898C110.883 36.898 108.672 36.3293 106.713 35.1921C104.755 34.0548 103.175 32.4753 102.038 30.5167C100.901 28.4949 100.332 26.2835 100.332 23.8826V2.40091C100.332 1.70591 100.585 1.07408 101.027 0.631815C101.469 0.189544 102.038 0 102.733 0C103.428 0 104.06 0.189544 104.502 0.631815C104.944 1.07408 105.134 1.64273 105.134 2.40091V15.1004C106.208 13.7736 107.535 12.6995 109.114 11.9413C110.694 11.1831 112.4 10.804 114.169 10.804C116.506 10.8672 118.528 11.4358 120.361 12.5731ZM117.581 31.5907C118.844 30.8326 119.855 29.7585 120.613 28.4317C121.371 27.1049 121.751 25.5885 121.751 23.8826C121.751 22.2399 121.371 20.7235 120.613 19.3967C119.855 18.0699 118.844 16.9958 117.581 16.2376C116.317 15.4795 114.864 15.1004 113.347 15.1004C111.768 15.1004 110.378 15.4795 109.114 16.2376C107.851 16.9958 106.84 18.0699 106.145 19.3967C105.45 20.7235 105.071 22.2399 105.071 23.8826C105.071 25.5253 105.45 27.0417 106.145 28.4317C106.84 29.7585 107.851 30.8326 109.114 31.5907C110.378 32.3489 111.831 32.728 113.347 32.728C114.864 32.728 116.254 32.3489 117.581 31.5907Z" fill="#102448"/>
<path d="M182.911 12.2572C184.616 13.205 186.006 14.595 186.954 16.364C187.902 18.1963 188.407 20.3445 188.407 22.8717V34.434C188.407 35.129 188.155 35.6976 187.712 36.1398C187.27 36.5821 186.701 36.8348 186.006 36.8348C185.311 36.8348 184.743 36.5821 184.3 36.1398C183.858 35.6976 183.606 35.129 183.606 34.434V22.8717C183.606 20.3445 182.911 18.3859 181.584 17.1222C180.194 15.7954 178.425 15.1636 176.15 15.1636C174.823 15.1636 173.623 15.4163 172.549 15.985C171.475 16.4904 170.59 17.2486 170.021 18.1331C169.39 19.0177 169.074 20.0917 169.074 21.1658V34.434C169.074 35.129 168.884 35.6976 168.442 36.1398C168 36.5821 167.431 36.8348 166.673 36.8348C165.978 36.8348 165.409 36.5821 164.967 36.1398C164.525 35.6976 164.272 35.129 164.272 34.434V13.4577C164.272 12.7627 164.525 12.1309 164.967 11.6886C165.409 11.2463 165.978 11.0568 166.673 11.0568C167.368 11.0568 168 11.2463 168.442 11.6886C168.884 12.1309 169.074 12.6995 169.074 13.4577V13.9632C170.085 12.9522 171.285 12.1941 172.675 11.6254C174.065 11.0568 175.518 10.8041 177.098 10.8041C179.246 10.8041 181.141 11.3095 182.911 12.2572Z" fill="#102448"/>
<path d="M18.6385 12.2564C20.3444 13.2041 21.7344 14.5941 22.6822 16.3632C23.6299 18.1954 24.1353 20.3436 24.1353 22.8709V34.4331C24.1353 35.1281 23.8826 35.6967 23.4403 36.139C22.9981 36.5812 22.4294 36.834 21.7344 36.834C21.0394 36.834 20.4708 36.5812 20.0285 36.139C19.5863 35.6967 19.3335 35.1281 19.3335 34.4331V22.8709C19.3335 20.3436 18.6385 18.385 17.3117 17.1214C15.9217 15.7946 14.1527 15.1627 11.8781 15.1627C10.5513 15.1627 9.35086 15.4155 8.27678 15.9841C7.20269 16.4896 6.31815 17.2477 5.74952 18.1323C5.1177 19.0168 4.80179 20.0909 4.80179 21.165V34.4331C4.80179 35.1281 4.61225 35.6967 4.16998 36.139C3.72771 36.5812 3.15908 36.834 2.4009 36.834C1.7059 36.834 1.13727 36.5812 0.694995 36.139C0.252725 35.6967 0 35.1281 0 34.4331V2.46327C0 1.76827 0.252725 1.13646 0.694995 0.694192C1.13727 0.251922 1.7059 0.0623779 2.4009 0.0623779C3.0959 0.0623779 3.72771 0.251922 4.16998 0.694192C4.61225 1.13646 4.80179 1.70509 4.80179 2.46327V13.9623C5.8127 12.9514 7.01315 12.1932 8.40314 11.6246C9.79313 11.0559 11.2463 10.8032 12.8258 10.8032C14.974 10.8032 16.9326 11.3087 18.6385 12.2564Z" fill="#102448"/>
<path d="M54.0832 35.4448C54.0832 35.4448 54.4623 35.1921 54.8413 35.5712C56.6736 37.4667 62.1072 43.0266 62.1072 43.0266C63.5604 44.543 65.5822 44.9221 66.909 43.5953L67.1617 43.4057C68.4885 42.1421 68.1726 40.0571 66.7195 38.5408C66.7195 38.5408 61.2859 32.9176 59.4536 31.0221C59.1377 30.7062 59.3904 30.264 59.3904 30.264C62.8022 24.7672 62.1704 17.6277 57.495 12.7627C51.935 7.01318 42.7737 6.88681 37.0242 12.4468C31.2747 18.0068 31.1483 27.1681 36.7083 32.9176C41.3837 37.8457 48.46 38.6671 54.0832 35.4448ZM39.3619 30.3903C35.2551 26.1572 35.3815 19.3968 39.6146 15.29C43.8478 11.1832 50.6082 11.3095 54.715 15.5427C58.8218 19.7758 58.6954 26.5363 54.4623 30.643C50.2291 34.6867 43.4687 34.6235 39.3619 30.3903Z" fill="#102448"/>
<path d="M60.9702 9.98275C62.6451 9.98275 64.0029 8.62494 64.0029 6.95001C64.0029 5.27509 62.6451 3.9173 60.9702 3.9173C59.2953 3.9173 57.9375 5.27509 57.9375 6.95001C57.9375 8.62494 59.2953 9.98275 60.9702 9.98275Z" fill="#C9203E"/>
<path d="M32.728 43.7848C34.7519 43.7848 36.3925 42.1442 36.3925 40.1203C36.3925 38.0964 34.7519 36.4557 32.728 36.4557C30.7041 36.4557 29.0635 38.0964 29.0635 40.1203C29.0635 42.1442 30.7041 43.7848 32.728 43.7848Z" fill="#F68A1F"/>
<path d="M47.0072 24.6409C47.0072 25.9677 47.0072 27.3577 47.0072 28.6845C47.0072 28.7477 47.0072 28.874 47.0072 28.9372C46.944 29.1899 46.7545 29.3163 46.5017 29.1899C45.9331 28.9372 45.3645 28.6845 44.859 28.3686C43.469 27.6736 42.079 26.9786 40.689 26.3468C40.31 26.1572 40.1836 25.9045 40.1836 25.4622C40.1836 23.5668 40.1836 21.7345 40.1836 19.8391C40.1836 19.46 40.1836 19.0177 40.1836 18.6386C40.1836 18.5754 40.1836 18.5123 40.1836 18.4491C40.2468 18.1332 40.31 18.07 40.6259 18.1332C42.5845 18.6386 44.5431 19.2072 46.5017 19.7127C46.8808 19.7759 47.0704 20.0286 47.0704 20.4077C47.0704 21.1659 47.0704 21.924 47.0704 22.6822C47.0072 23.3772 47.0072 24.009 47.0072 24.6409Z" fill="#FED41A"/>
<path d="M48.0811 24.6408C48.0811 23.2508 48.0811 21.924 48.0811 20.534C48.0811 20.0917 48.2706 19.839 48.6497 19.7127C50.2924 19.2072 51.8719 18.7018 53.5147 18.1331C53.7042 18.0699 53.7674 18.1331 53.8306 18.2595C53.8938 18.3858 53.8938 18.449 53.8938 18.5754C53.8938 20.8499 53.8938 23.1876 53.8938 25.4622C53.8938 25.8413 53.7674 26.094 53.4515 26.2835C51.8719 27.2312 50.2292 28.1158 48.6497 29.0635C48.3338 29.253 48.0811 29.1267 48.0811 28.7476C48.0811 27.7999 48.0811 26.789 48.0811 25.8412C48.0811 25.4622 48.0811 25.0831 48.0811 24.6408Z" fill="#FED41A"/>
<path d="M40.8154 17.5645C42.2054 17.3749 43.5322 17.1854 44.8591 16.9327C45.4909 16.8063 46.1227 16.7431 46.8177 16.6168C47.0704 16.6168 47.3863 16.6167 47.639 16.6799C48.7131 16.8063 49.7872 16.9958 50.8613 17.1854C51.6195 17.3118 52.3776 17.4381 53.1358 17.5013C53.1358 17.5013 53.1358 17.5013 53.199 17.5645C52.9463 17.6277 52.6936 17.6908 52.4408 17.754C51.114 18.1331 49.724 18.5122 48.3972 18.8913C47.8286 19.0808 47.2599 19.0177 46.6281 18.8913C44.7327 18.449 42.8372 18.0068 40.9418 17.5645C40.8786 17.6277 40.8786 17.6277 40.8154 17.5645Z" fill="#FED41A"/>
</svg>
